<svg width="38" height="38" viewBox="0 0 38 38" fill="none" xmlns="http://www.w3.org/2000/svg">
    <g clip-path="url(#clip0_34071_36495)">
        <rect x="1" y="1" width="36" height="36" rx="18" fill="#EAF8F4"/>
        <path d="M19.0004 23.3201C22.6455 23.3201 25.6004 20.3652 25.6004 16.7201C25.6004 13.075 22.6455 10.1201 19.0004 10.1201C15.3553 10.1201 12.4004 13.075 12.4004 16.7201C12.4004 20.3652 15.3553 23.3201 19.0004 23.3201Z" fill="#2DB894"/>
        <path d="M19.0008 26.6201C12.3876 26.6201 7.00195 31.0553 7.00195 36.5201C7.00195 36.8897 7.29235 37.1801 7.66195 37.1801H30.3396C30.7092 37.1801 30.9996 36.8897 30.9996 36.5201C30.9996 31.0553 25.614 26.6201 19.0008 26.6201Z" fill="#2DB894"/>
    </g>
    <rect x="0.5" y="0.5" width="37" height="37" rx="18.5" stroke="#2DB894" stroke-opacity="0.5"/>
    <defs>
        <clipPath id="clip0_34071_36495">
            <rect x="1" y="1" width="36" height="36" rx="18" fill="white"/>
        </clipPath>
    </defs>
</svg>
