<svg width="327" height="22" viewBox="0 0 327 22" fill="none" xmlns="http://www.w3.org/2000/svg">
    <line x1="0.5" y1="10.5" x2="138.5" y2="10.5" stroke="#F3F4F6" stroke-linecap="round"/>
    <path d="M165.685 10.932C165.685 11.9587 165.475 12.8687 165.055 13.662C164.645 14.446 164.071 15.062 163.333 15.51C162.605 15.9487 161.761 16.168 160.799 16.168C159.857 16.168 159.017 15.9487 158.279 15.51C157.551 15.062 156.982 14.446 156.571 13.662C156.161 12.878 155.955 11.968 155.955 10.932C155.955 9.90533 156.161 9 156.571 8.216C156.991 7.432 157.565 6.816 158.293 6.368C159.021 5.92 159.861 5.696 160.813 5.696C161.775 5.696 162.619 5.92 163.347 6.368C164.075 6.816 164.645 7.432 165.055 8.216C165.475 9 165.685 9.90533 165.685 10.932ZM164.243 10.932C164.243 10.148 164.099 9.462 163.809 8.874C163.529 8.286 163.133 7.83333 162.619 7.516C162.106 7.18933 161.504 7.026 160.813 7.026C160.132 7.026 159.535 7.18933 159.021 7.516C158.508 7.83333 158.107 8.286 157.817 8.874C157.537 9.462 157.397 10.148 157.397 10.932C157.397 11.716 157.537 12.402 157.817 12.99C158.107 13.578 158.508 14.0353 159.021 14.362C159.535 14.6887 160.132 14.852 160.813 14.852C161.504 14.852 162.106 14.6887 162.619 14.362C163.133 14.026 163.529 13.564 163.809 12.976C164.099 12.388 164.243 11.7067 164.243 10.932ZM171.336 9.098V10.302H170.748C170.123 10.302 169.628 10.484 169.264 10.848C168.91 11.2027 168.732 11.7113 168.732 12.374V16H167.416V9.168H168.648L168.76 10.54H168.634C168.728 10.092 168.952 9.728 169.306 9.448C169.661 9.15867 170.104 9.014 170.636 9.014C170.758 9.014 170.87 9.02333 170.972 9.042C171.084 9.05133 171.206 9.07 171.336 9.098Z" fill="#9CA3AF"/>
    <line x1="188.5" y1="10.5" x2="326.5" y2="10.5" stroke="#F3F4F6" stroke-linecap="round"/>
</svg>
